HIERARCHY
ROOT Hips
{
	OFFSET 0.000000 83.214638 0.000000
	CHANNELS 6 Xposition Yposition Zposition Xrotation Yrotation Zrotation
	JOINT Pelvis
	{
		OFFSET 0.000000 0.000000 0.000000
		CHANNELS 3 Xrotation Yrotation Zrotation
		JOINT LeftUpLeg
		{
			OFFSET 8.479700 -4.795502 -0.379100
			CHANNELS 3 Xrotation Yrotation Zrotation
			JOINT LeftLeg
			{
				OFFSET 0.024144 -32.555107 0.112900
				CHANNELS 3 Xrotation Yrotation Zrotation
				JOINT LeftFoot
				{
					OFFSET -0.024144 -32.638630 -3.012600
					CHANNELS 3 Xrotation Yrotation Zrotation
					JOINT LeftToeBase
					{
						OFFSET 0.970200 -13.225400 11.864200
						CHANNELS 3 Xrotation Yrotation Zrotation
						End Site
						{
							OFFSET 0.000000 12.319262 0.000000
						}
					}
					JOINT LFootTongue
					{
						OFFSET 1.142400 -1.059800 6.665200
						CHANNELS 3 Xrotation Yrotation Zrotation
						End Site
						{
							OFFSET 0.000000 12.319262 0.000000
						}
					}
				}
				JOINT LeftPantLeg
				{
					OFFSET 0.918482 -16.533964 -2.284700
					CHANNELS 3 Xrotation Yrotation Zrotation
					End Site
					{
						OFFSET 0.350399 24.744368 0.000000
					}
				}
			}
		}
		JOINT RightUpLeg
		{
			OFFSET -8.479700 -4.795502 -0.379100
			CHANNELS 3 Xrotation Yrotation Zrotation
			JOINT RightLeg
			{
				OFFSET -0.023144 -32.555092 0.112900
				CHANNELS 3 Xrotation Yrotation Zrotation
				JOINT RightFoot
				{
					OFFSET 0.023144 -32.638641 -3.012700
					CHANNELS 3 Xrotation Yrotation Zrotation
					JOINT RightToeBase
					{
						OFFSET -0.970200 -13.225400 11.864200
						CHANNELS 3 Xrotation Yrotation Zrotation
						End Site
						{
							OFFSET 0.000000 12.319244 0.000000
						}
					}
					JOINT RFootTongue
					{
						OFFSET -1.142200 -1.059800 6.665200
						CHANNELS 3 Xrotation Yrotation Zrotation
						End Site
						{
							OFFSET 0.000000 12.319243 0.000000
						}
					}
				}
				JOINT RightPantLeg
				{
					OFFSET -0.919482 -16.533978 -2.284800
					CHANNELS 3 Xrotation Yrotation Zrotation
					End Site
					{
						OFFSET -0.350400 24.744419 0.000000
					}
				}
			}
		}
	}
	JOINT Spine
	{
		OFFSET 0.000000 7.722000 1.166200
		CHANNELS 3 Xrotation Yrotation Zrotation
		JOINT Spine1
		{
			OFFSET 0.000000 12.024101 0.248800
			CHANNELS 3 Xrotation Yrotation Zrotation
			JOINT Spine2
			{
				OFFSET 0.000000 11.502998 -0.491200
				CHANNELS 3 Xrotation Yrotation Zrotation
				JOINT Neck
				{
					OFFSET 0.000000 18.430702 -3.123100
					CHANNELS 3 Xrotation Yrotation Zrotation
					JOINT Head
					{
						OFFSET 0.000000 9.051102 1.034000
						CHANNELS 3 Xrotation Yrotation Zrotation
						JOINT HairB
						{
							OFFSET 0.208400 24.786102 24.822300
							CHANNELS 3 Xrotation Yrotation Zrotation
							End Site
							{
								OFFSET 0.000000 32.263779 0.000000
							}
						}
						JOINT HairA
						{
							OFFSET -7.081100 24.428299 23.196600
							CHANNELS 3 Xrotation Yrotation Zrotation
							End Site
							{
								OFFSET 0.000000 32.263779 0.000000
							}
						}
						JOINT Hat
						{
							OFFSET 16.728800 15.048294 -15.439601
							CHANNELS 3 Xrotation Yrotation Zrotation
							End Site
							{
								OFFSET 0.000000 32.263779 0.000000
							}
						}
					}
				}
				JOINT LeftShoulder
				{
					OFFSET 6.197800 13.665199 -4.064700
					CHANNELS 3 Xrotation Yrotation Zrotation
					JOINT LeftArm
					{
						OFFSET 7.778100 -0.187103 -1.709300
						CHANNELS 3 Xrotation Yrotation Zrotation
						JOINT LeftForeArm
						{
							OFFSET 22.049376 0.000000 0.000000
							CHANNELS 3 Xrotation Yrotation Zrotation
							JOINT LeftHand
							{
								OFFSET 23.009392 0.000000 0.000000
								CHANNELS 3 Xrotation Yrotation Zrotation
								JOINT LeftHandThumb1
								{
									OFFSET 3.507191 -2.063065 3.133727
									CHANNELS 3 Xrotation Yrotation Zrotation
									JOINT LeftHandThumb2
									{
										OFFSET 3.101337 -1.790558 1.790558
										CHANNELS 3 Xrotation Yrotation Zrotation
										JOINT LeftHandThumb3
										{
											OFFSET 3.058640 -1.765907 1.765906
											CHANNELS 3 Xrotation Yrotation Zrotation
											End Site
											{
												OFFSET -0.415260 3.926476 -0.049563
											}
										}
									}
								}
								JOINT LeftHandIndex1
								{
									OFFSET 11.334419 -0.901459 3.706815
									CHANNELS 3 Xrotation Yrotation Zrotation
									JOINT LeftHandIndex2
									{
										OFFSET 3.283112 0.000000 0.000000
										CHANNELS 3 Xrotation Yrotation Zrotation
										JOINT LeftHandIndex3
										{
											OFFSET 3.323853 0.000000 0.000000
											CHANNELS 3 Xrotation Yrotation Zrotation
											End Site
											{
												OFFSET -1.135597 3.097809 0.402452
											}
										}
									}
								}
								JOINT LeftHandMiddle1
								{
									OFFSET 11.335861 0.000000 0.000000
									CHANNELS 3 Xrotation Yrotation Zrotation
									JOINT LeftHandMiddle2
									{
										OFFSET 3.410492 0.000000 0.000000
										CHANNELS 3 Xrotation Yrotation Zrotation
										JOINT LeftHandMiddle3
										{
											OFFSET 3.312172 0.000000 0.000000
											CHANNELS 3 Xrotation Yrotation Zrotation
											End Site
											{
												OFFSET -1.150200 3.080154 0.400270
											}
										}
									}
								}
								JOINT LeftHandRing1
								{
									OFFSET 11.514786 -0.013176 -3.003090
									CHANNELS 3 Xrotation Yrotation Zrotation
									JOINT LeftHandRing2
									{
										OFFSET 3.053307 0.000000 0.000000
										CHANNELS 3 Xrotation Yrotation Zrotation
										JOINT LeftHandRing3
										{
											OFFSET 3.295807 0.000000 0.000000
											CHANNELS 3 Xrotation Yrotation Zrotation
											End Site
											{
												OFFSET -1.281006 3.013344 0.375733
											}
										}
									}
								}
								JOINT LeftHandPinky1
								{
									OFFSET 10.518692 -0.960396 -5.730441
									CHANNELS 3 Xrotation Yrotation Zrotation
									JOINT LeftHandPinky2
									{
										OFFSET 2.861649 0.000000 0.000000
										CHANNELS 3 Xrotation Yrotation Zrotation
										JOINT LeftHandPinky3
										{
											OFFSET 2.863380 0.000000 0.000000
											CHANNELS 3 Xrotation Yrotation Zrotation
											End Site
											{
												OFFSET -0.843597 2.711159 0.369971
											}
										}
									}
								}
							}
							JOINT LSleeve
							{
								OFFSET 6.676277 -0.344902 -1.011730
								CHANNELS 3 Xrotation Yrotation Zrotation
								End Site
								{
									OFFSET 0.000000 14.885353 0.000000
								}
							}
						}
					}
				}
				JOINT RightShoulder
				{
					OFFSET -6.197800 13.665199 -4.064700
					CHANNELS 3 Xrotation Yrotation Zrotation
					JOINT RightArm
					{
						OFFSET -7.778100 -0.187103 -1.709300
						CHANNELS 3 Xrotation Yrotation Zrotation
						JOINT RightForeArm
						{
							OFFSET -22.049376 0.000000 0.000000
							CHANNELS 3 Xrotation Yrotation Zrotation
							JOINT RightHand
							{
								OFFSET -23.009392 0.000000 0.000000
								CHANNELS 3 Xrotation Yrotation Zrotation
								JOINT RightHandThumb1
								{
									OFFSET -3.507191 -2.063065 3.133727
									CHANNELS 3 Xrotation Yrotation Zrotation
									JOINT RightHandThumb2
									{
										OFFSET -3.101337 -1.790558 1.790558
										CHANNELS 3 Xrotation Yrotation Zrotation
										JOINT RightHandThumb3
										{
											OFFSET -3.058640 -1.765907 1.765906
											CHANNELS 3 Xrotation Yrotation Zrotation
											End Site
											{
												OFFSET 0.415260 3.926476 -0.049563
											}
										}
									}
								}
								JOINT RightHandIndex1
								{
									OFFSET -11.334419 -0.901459 3.706815
									CHANNELS 3 Xrotation Yrotation Zrotation
									JOINT RightHandIndex2
									{
										OFFSET -3.283112 0.000000 0.000000
										CHANNELS 3 Xrotation Yrotation Zrotation
										JOINT RightHandIndex3
										{
											OFFSET -3.323853 0.000000 0.000000
											CHANNELS 3 Xrotation Yrotation Zrotation
											End Site
											{
												OFFSET 1.135597 3.097809 0.402452
											}
										}
									}
								}
								JOINT RightHandMiddle1
								{
									OFFSET -11.335861 0.000000 0.000000
									CHANNELS 3 Xrotation Yrotation Zrotation
									JOINT RightHandMiddle2
									{
										OFFSET -3.410492 0.000000 0.000000
										CHANNELS 3 Xrotation Yrotation Zrotation
										JOINT RightHandMiddle3
										{
											OFFSET -3.312172 0.000000 0.000000
											CHANNELS 3 Xrotation Yrotation Zrotation
											End Site
											{
												OFFSET 1.150200 3.080154 0.400270
											}
										}
									}
								}
								JOINT RightHandRing1
								{
									OFFSET -11.514786 -0.013176 -3.003090
									CHANNELS 3 Xrotation Yrotation Zrotation
									JOINT RightHandRing2
									{
										OFFSET -3.053307 0.000000 0.000000
										CHANNELS 3 Xrotation Yrotation Zrotation
										JOINT RightHandRing3
										{
											OFFSET -3.295807 0.000000 0.000000
											CHANNELS 3 Xrotation Yrotation Zrotation
											End Site
											{
												OFFSET 1.281006 3.013344 0.375733
											}
										}
									}
								}
								JOINT RightHandPinky1
								{
									OFFSET -10.518692 -0.960396 -5.730441
									CHANNELS 3 Xrotation Yrotation Zrotation
									JOINT RightHandPinky2
									{
										OFFSET -2.861649 0.000000 0.000000
										CHANNELS 3 Xrotation Yrotation Zrotation
										JOINT RightHandPinky3
										{
											OFFSET -2.863380 0.000000 0.000000
											CHANNELS 3 Xrotation Yrotation Zrotation
											End Site
											{
												OFFSET 0.843597 2.711159 0.369971
											}
										}
									}
								}
							}
							JOINT RSleeve
							{
								OFFSET -6.676277 -0.344902 -1.011730
								CHANNELS 3 Xrotation Yrotation Zrotation
								End Site
								{
									OFFSET 0.000000 14.885353 0.000000
								}
							}
						}
					}
				}
				JOINT Backpack
				{
					OFFSET 0.000000 -2.471497 36.677502
					CHANNELS 3 Xrotation Yrotation Zrotation
					End Site
					{
						OFFSET 0.000000 20.427315 0.000000
					}
				}
				JOINT Hood
				{
					OFFSET 0.000000 18.754097 -10.431000
					CHANNELS 3 Xrotation Yrotation Zrotation
					JOINT Hood1
					{
						OFFSET 0.000000 -5.011002 -7.685901
						CHANNELS 3 Xrotation Yrotation Zrotation
						End Site
						{
							OFFSET 0.000000 9.175140 0.000000
						}
					}
				}
				JOINT LHoodieString
				{
					OFFSET 5.250500 16.397697 3.089900
					CHANNELS 3 Xrotation Yrotation Zrotation
					JOINT LHoodieString1
					{
						OFFSET 0.257700 -6.364304 3.694600
						CHANNELS 3 Xrotation Yrotation Zrotation
						JOINT LHoodieString2
						{
							OFFSET 0.000000 -9.643799 2.679100
							CHANNELS 3 Xrotation Yrotation Zrotation
							End Site
							{
								OFFSET 0.000000 10.009018 0.000000
							}
						}
					}
				}
				JOINT RHoodieString
				{
					OFFSET -5.250500 16.397697 3.089900
					CHANNELS 3 Xrotation Yrotation Zrotation
					JOINT RHoodieString1
					{
						OFFSET -0.257700 -6.364304 3.694600
						CHANNELS 3 Xrotation Yrotation Zrotation
						JOINT RHoodieString2
						{
							OFFSET 0.000000 -9.643799 2.679100
							CHANNELS 3 Xrotation Yrotation Zrotation
							End Site
							{
								OFFSET 0.000000 10.009018 0.000000
							}
						}
					}
				}
			}
			JOINT LBackpack_Strap
			{
				OFFSET 15.223200 -7.719803 -6.610900
				CHANNELS 3 Xrotation Yrotation Zrotation
				End Site
				{
					OFFSET 0.000000 16.040596 0.000000
				}
			}
			JOINT RBackpack_Strap
			{
				OFFSET -15.223000 -7.719803 -6.610900
				CHANNELS 3 Xrotation Yrotation Zrotation
				End Site
				{
					OFFSET 0.000000 16.040596 0.000000
				}
			}
		}
	}
	JOINT BoyFacialAnim_Joint
	{
		OFFSET 1.000000 -82.208099 -1.550900
		CHANNELS 3 Xrotation Yrotation Zrotation
		End Site
		{
			OFFSET 0.000000 30.012791 0.000000
		}
	}
}
MOTION
Frames: 4
Frame Time: 0.033333
-0.631708 42.059563 -0.929470 12.229517 8.860052 6.169452 -0.000001 -0.000001 0.000000 -108.664546 -11.020368 23.789680 100.554994 -9.933818 -1.031129 -3.353176 -16.091557 -14.412573 -0.000000 0.000000 0.000000 -0.000000 0.000000 0.000000 0.000000 -0.000001 0.000000 -59.806024 30.593093 -7.966292 130.701312 6.522540 0.448366 5.792276 8.680999 16.149094 0.000000 -0.000000 0.000000 0.000000 -0.000000 0.000000 -0.000000 0.000001 0.000002 8.061996 -0.870329 0.441981 15.475976 0.229579 1.708887 15.475767 0.244631 1.706842 -12.645334 -0.624961 -6.065076 -37.597490 -8.771532 -6.328577 0.000000 0.000000 0.000000 0.000000 0.000000 0.000000 0.000000 0.000000 0.000000 0.492158 5.063727 -11.057409 -25.226711 -49.677038 -47.864972 -0.000004 -58.074462 -0.000002 28.542218 -10.611006 -18.973475 -1.940559 17.644616 8.289760 4.600201 15.962938 1.348841 0.000001 0.000000 0.000002 0.576152 2.761889 -23.562230 0.105380 1.202390 -10.015929 0.000001 -0.000001 -0.000002 0.575369 2.760107 -23.546215 0.105719 1.204311 -10.031906 0.000001 -0.000001 -0.000000 0.576149 2.761865 -23.562240 0.105381 1.202417 -10.015929 -0.000001 0.000000 -0.000000 2.189460 6.483751 -23.181903 0.098125 -2.852835 -10.518885 -0.000000 0.000001 -0.000000 0.000002 -0.000002 0.000004 1.316154 2.242588 10.189212 -26.359764 24.643720 51.564858 0.000005 20.604802 0.000007 36.527169 10.069587 18.267158 -2.406723 -20.106414 -9.273502 4.975751 -12.265399 -0.489421 -0.000001 -0.000001 0.000000 0.390892 -2.302725 19.266326 0.266802 -1.911254 15.892006 -0.000001 0.000000 0.000002 0.390893 -2.302713 19.266333 0.266797 -1.911276 15.891999 -0.000000 0.000001 -0.000002 0.390897 -2.302711 19.266336 0.266791 -1.911266 15.892001 -0.000001 -0.000001 -0.000002 0.390892 -2.302706 19.266328 0.266795 -1.911268 15.891996 0.000001 -0.000001 -0.000002 -0.000000 0.000000 -0.000001 -0.000000 0.000000 -0.000000 -0.000000 0.000000 -0.000000 -0.000000 0.000000 -0.000000 -0.000000 0.000000 -0.000000 -0.000000 0.000000 0.000000 -0.000000 0.000000 -0.000001 -0.000000 0.000000 -0.000000 -0.000000 0.000000 0.000000 -0.000000 0.000000 -0.000001 0.000003 -0.000000 0.000000 0.000003 -0.000000 0.000000 -0.000001 -0.000001 0.000000 
-0.622691 42.055984 -0.939095 12.145973 8.941885 6.217723 0.000001 0.000000 0.000000 -108.604994 -10.961691 23.680182 100.540111 -9.932049 -1.030753 -3.355328 -16.105284 -14.427313 -0.000000 -0.000000 -0.000000 -0.000000 -0.000000 0.000000 0.000000 0.000000 0.000000 -59.631998 30.674981 -8.133486 130.694044 6.525446 0.455718 5.764034 8.885332 16.221211 -0.000000 -0.000000 -0.000000 -0.000000 -0.000000 -0.000000 -0.000001 -0.000001 0.000002 8.086444 -0.880880 0.439049 15.522319 0.220349 1.698796 15.522092 0.236024 1.696565 -12.645902 -0.619669 -6.105149 -37.623943 -8.783159 -6.357049 0.000000 0.000000 0.000000 0.000000 0.000000 0.000000 0.000000 0.000000 0.000000 0.493608 5.051400 -11.045334 -25.101082 -49.731236 -47.747851 0.000016 -58.453845 0.000023 27.936257 -11.160709 -18.527336 -1.940562 17.644610 8.289761 4.600200 15.962934 1.348840 0.000000 0.000000 0.000001 0.576153 2.761892 -23.562238 0.105378 1.202391 -10.015927 -0.000001 -0.000001 -0.000004 0.575370 2.760107 -23.546215 0.105720 1.204310 -10.031903 0.000002 -0.000000 -0.000002 0.576148 2.761865 -23.562238 0.105380 1.202414 -10.015932 -0.000001 0.000001 -0.000002 2.189458 6.483753 -23.181899 0.098124 -2.852833 -10.518883 -0.000002 0.000001 0.000002 0.000002 0.000000 0.000002 1.317525 2.255366 10.187983 -26.499023 24.681814 51.612140 0.000003 20.425520 0.000007 36.633129 10.166518 18.230477 -2.406726 -20.106415 -9.273501 4.975753 -12.265404 -0.489422 0.000000 0.000001 0.000000 0.390892 -2.302725 19.266326 0.266803 -1.911256 15.892008 0.000000 -0.000001 0.000002 0.390891 -2.302713 19.266333 0.266798 -1.911275 15.891996 -0.000000 0.000001 -0.000000 0.390897 -2.302710 19.266331 0.266792 -1.911266 15.892003 0.000001 0.000002 0.000001 0.390891 -2.302705 19.266324 0.266794 -1.911269 15.891996 -0.000002 -0.000000 -0.000005 0.000003 -0.000000 -0.000000 -0.000000 -0.000000 0.000000 -0.000000 -0.000000 0.000000 -0.000000 -0.000000 0.000000 -0.000000 -0.000000 0.000000 -0.000000 -0.000000 0.000001 -0.000000 -0.000000 -0.000000 -0.000000 -0.000000 0.000000 -0.000000 -0.000000 0.000001 -0.000000 -0.000000 -0.000000 -0.000003 0.000000 -0.000000 -0.000003 0.000000 -0.000000 0.000001 0.000000 0.000000 
-0.592108 42.050446 -0.948692 12.016665 9.045514 6.307262 -0.000000 -0.000001 -0.000000 -108.517171 -10.847347 23.519828 100.549517 -9.928665 -1.028537 -3.369742 -16.078948 -14.425701 -0.000000 0.000000 0.000000 -0.000000 0.000000 0.000000 -0.000000 0.000001 -0.000001 -59.328451 30.837747 -8.406372 130.674264 6.529893 0.466919 5.694945 9.196713 16.332492 -0.000000 0.000000 -0.000000 -0.000000 0.000000 -0.000000 0.000000 -0.000001 0.000001 8.141988 -0.911377 0.427467 15.631620 0.168824 1.671180 15.631498 0.185510 1.668311 -12.722584 -0.611827 -6.058014 -37.730651 -8.677132 -6.404450 0.000000 0.000000 -0.000000 0.000000 0.000000 -0.000000 0.000000 0.000000 -0.000000 0.488679 5.109552 -11.028345 -24.847181 -49.848923 -47.462742 0.000009 -59.312434 -0.000002 27.238446 -11.502675 -18.128738 -1.940561 17.644622 8.289755 4.600201 15.962934 1.348845 0.000000 0.000001 0.000001 0.576152 2.761896 -23.562237 0.105377 1.202395 -10.015929 0.000001 -0.000000 -0.000004 0.575370 2.760113 -23.546218 0.105718 1.204311 -10.031908 -0.000000 -0.000001 -0.000002 0.576148 2.761870 -23.562242 0.105379 1.202412 -10.015928 0.000000 0.000001 -0.000002 2.189456 6.483758 -23.181903 0.098123 -2.852833 -10.518883 -0.000001 0.000001 0.000002 -0.000001 0.000001 -0.000001 1.334420 2.202911 10.276093 -26.824492 25.079693 51.489849 -0.000002 20.146722 0.000007 36.590717 10.339624 18.308337 -2.406723 -20.106414 -9.273501 4.975751 -12.265403 -0.489421 -0.000001 0.000002 0.000000 0.390895 -2.302724 19.266326 0.266803 -1.911256 15.892008 -0.000001 -0.000001 0.000003 0.390893 -2.302712 19.266333 0.266795 -1.911277 15.892003 0.000002 0.000000 -0.000002 0.390899 -2.302710 19.266333 0.266793 -1.911265 15.892001 -0.000003 0.000000 -0.000003 0.390892 -2.302705 19.266324 0.266796 -1.911267 15.891999 -0.000002 -0.000002 -0.000000 0.000002 -0.000000 0.000000 -0.000001 0.000000 0.000000 -0.000001 0.000000 0.000000 -0.000001 0.000000 0.000000 -0.000001 0.000000 0.000000 -0.000001 0.000000 0.000000 0.000003 0.000000 0.000000 -0.000001 0.000000 0.000000 -0.000001 0.000000 0.000000 0.000003 0.000000 0.000000 0.000001 0.000000 -0.000000 0.000001 0.000000 -0.000000 -0.000000 -0.000001 -0.000000 
-0.525035 42.042427 -0.957130 11.846593 9.153805 6.426846 -0.000001 0.000000 -0.000000 -108.412328 -10.686509 23.320277 100.601938 -9.923854 -1.025454 -3.410070 -16.040375 -14.396483 -0.000000 0.000000 0.000000 -0.000000 0.000000 0.000000 0.000000 -0.000001 0.000001 -58.870896 31.117085 -8.790173 130.620019 6.537335 0.482896 5.562121 9.645427 16.537500 -0.000000 0.000000 0.000000 -0.000000 0.000000 0.000000 -0.000000 -0.000000 0.000001 8.192528 -0.932106 0.429592 15.733298 0.131700 1.667788 15.733223 0.149790 1.664318 -12.673466 -0.607149 -6.070187 -37.929389 -8.593478 -6.483040 -0.000000 0.000000 0.000000 -0.000000 0.000000 0.000000 -0.000000 0.000000 0.000000 0.496578 5.034132 -10.989142 -24.333312 -49.949003 -47.084797 0.000020 -60.651759 0.000025 26.436556 -11.653618 -17.758398 -1.940562 17.644612 8.289761 4.600201 15.962934 1.348849 0.000000 0.000001 -0.000003 0.576152 2.761894 -23.562230 0.105379 1.202393 -10.015930 0.000001 -0.000001 -0.000002 0.575369 2.760108 -23.546213 0.105720 1.204310 -10.031904 0.000001 -0.000000 -0.000002 0.576148 2.761866 -23.562237 0.105381 1.202414 -10.015930 0.000001 0.000000 0.000001 2.189458 6.483753 -23.181906 0.098125 -2.852832 -10.518881 0.000001 0.000000 0.000002 -0.000001 -0.000003 0.000005 1.342495 2.243300 10.285300 -27.134011 25.282442 51.434685 0.000003 19.816551 0.000010 36.655931 10.519893 18.237276 -2.406725 -20.106412 -9.273501 4.975751 -12.265398 -0.489422 -0.000000 -0.000001 0.000000 0.390892 -2.302725 19.266326 0.266800 -1.911256 15.892004 -0.000001 0.000000 0.000005 0.390891 -2.302712 19.266330 0.266796 -1.911275 15.891999 0.000000 0.000002 -0.000002 0.390899 -2.302710 19.266333 0.266792 -1.911267 15.892001 -0.000001 -0.000000 0.000004 0.390891 -2.302708 19.266324 0.266796 -1.911267 15.891996 -0.000001 0.000000 0.000002 0.000004 0.000000 -0.000001 -0.000003 0.000000 0.000000 -0.000003 0.000000 0.000000 -0.000003 0.000000 0.000000 -0.000003 0.000000 0.000000 -0.000003 0.000000 0.000000 0.000000 0.000000 -0.000000 -0.000003 0.000000 0.000000 -0.000003 0.000000 0.000000 0.000000 0.000000 -0.000000 0.000001 0.000000 -0.000000 0.000001 0.000000 -0.000000 -0.000001 0.000000 -0.000000 
